<?xml version="1.0" standalone="no"?>
<!DOCTYPE svg PUBLIC "-//W3C//DTD SVG 20010904//EN"
 "http://www.w3.org/TR/2001/REC-SVG-20010904/DTD/svg10.dtd">
<svg version="1.0" xmlns="http://www.w3.org/2000/svg"
 width="512.000000pt" height="512.000000pt" viewBox="0 0 512.000000 512.000000"
 preserveAspectRatio="xMidYMid meet">
<metadata>
Created by potrace 1.14, written by Peter Selinger 2001-2017
</metadata>
<g transform="translate(0.000000,512.000000) scale(0.100000,-0.100000)"
fill="#000000" stroke="none">
<path d="M1499 4806 c-3 -4 -52 -11 -108 -16 -77 -7 -125 -18 -189 -44 -67
-26 -106 -35 -170 -38 -75 -4 -87 -8 -135 -41 -58 -40 -84 -50 -167 -67 -175
-34 -264 -173 -232 -360 7 -39 12 -88 12 -111 0 -22 7 -56 15 -76 8 -19 15
-65 16 -102 0 -36 9 -104 20 -151 58 -246 60 -338 14 -605 -8 -44 -14 -96 -14
-115 1 -51 -17 -166 -36 -235 -19 -66 -11 -131 21 -180 15 -23 18 -24 43 -10
57 29 113 37 161 21 l45 -14 -75 -1 c-99 -1 -139 -14 -179 -55 -82 -85 -41
-229 75 -257 21 -5 223 -9 449 -9 238 0 427 -4 450 -10 59 -14 565 -12 651 4
39 7 99 11 132 8 l61 -4 3 -117 c2 -64 -2 -154 -9 -201 -15 -109 -17 -910 -3
-960 6 -21 11 -181 11 -400 0 -240 4 -377 11 -400 18 -57 64 -124 100 -144 71
-43 174 -15 213 58 10 18 31 41 47 51 l30 17 -24 27 c-14 14 -33 45 -43 68
-17 40 -18 71 -12 485 3 262 2 459 -4 483 -13 56 -26 577 -16 650 5 33 11 132
15 220 l7 160 80 -1 c101 0 286 -19 346 -34 47 -11 399 -9 1170 7 l366 8 35
25 c49 33 72 75 72 131 0 55 -29 106 -76 134 -32 19 -49 20 -388 18 -195 -1
-519 -4 -718 -8 -276 -5 -371 -3 -395 6 -18 7 -88 16 -157 20 -69 4 -173 11
-232 15 l-107 7 -5 161 c-6 232 -22 403 -42 466 -16 50 -18 96 -15 485 2 396
4 434 22 483 38 106 20 206 -54 285 -33 35 -34 37 -11 37 35 0 36 13 4 52 -44
53 -109 79 -220 88 -56 5 -126 18 -170 33 -41 14 -109 31 -150 38 -77 12 -531
25 -541 15z"/>
</g>
</svg>
